<svg width="21" height="20" viewBox="0 0 21 20" fill="none" xmlns="http://www.w3.org/2000/svg">
<path d="M10.9501 17.5C10.6992 17.4997 10.4542 17.4239 10.247 17.2824C7.17709 15.1984 5.8478 13.7695 5.11459 12.8762C3.55209 10.9719 2.80405 9.0168 2.82514 6.89961C2.84975 4.47344 4.79623 2.5 7.1642 2.5C8.88608 2.5 10.0787 3.46992 10.7732 4.27773C10.7952 4.30307 10.8224 4.32338 10.8529 4.3373C10.8834 4.35122 10.9166 4.35842 10.9501 4.35842C10.9837 4.35842 11.0169 4.35122 11.0474 4.3373C11.0779 4.32338 11.1051 4.30307 11.1271 4.27773C11.8216 3.46914 13.0142 2.5 14.7361 2.5C17.104 2.5 19.0505 4.47344 19.0751 6.9C19.0962 9.01758 18.3474 10.9727 16.7857 12.8766C16.0525 13.7699 14.7232 15.1988 11.6533 17.2828C11.446 17.4241 11.201 17.4998 10.9501 17.5Z" fill="#FF7474"/>
</svg>
