<svg width="24" height="24" viewBox="0 0 24 24" fill="none" xmlns="http://www.w3.org/2000/svg">
<path d="M11.625 3C6.86203 3 3 6.86203 3 11.625C3 16.388 6.86203 20.25 11.625 20.25C16.388 20.25 20.25 16.388 20.25 11.625C20.25 6.86203 16.388 3 11.625 3Z" stroke="black" stroke-width="2" stroke-miterlimit="10"/>
<path d="M10.3125 10.3125H11.8125V15.75" stroke="black" stroke-width="2" stroke-linecap="round" stroke-linejoin="round"/>
<path d="M9.75 15.9375H13.875" stroke="black" stroke-width="2" stroke-miterlimit="10" stroke-linecap="round"/>
<path d="M11.625 6.09375C11.384 6.09375 11.1483 6.16523 10.9479 6.29915C10.7475 6.43307 10.5913 6.62341 10.499 6.84611C10.4068 7.0688 10.3826 7.31386 10.4297 7.55027C10.4767 7.78669 10.5928 8.00385 10.7632 8.17429C10.9337 8.34474 11.1508 8.46081 11.3872 8.50784C11.6237 8.55487 11.8687 8.53073 12.0914 8.43849C12.3141 8.34624 12.5044 8.19003 12.6384 7.98961C12.7723 7.78918 12.8438 7.55355 12.8438 7.3125C12.8438 6.98927 12.7154 6.67928 12.4868 6.45071C12.2582 6.22215 11.9482 6.09375 11.625 6.09375Z" fill="black"/>
</svg>
