<svg width="40" height="40" viewBox="0 0 40 40" fill="none" xmlns="http://www.w3.org/2000/svg">
<path d="M31.6221 9.61563C27.9979 8.13906 24.1948 7.5 20.0003 7.5C15.8057 7.5 11.7112 8.20312 8.36745 9.58438C7.7362 9.84219 7.17527 10.2875 7.58074 11.1078C7.90964 11.7742 15.8596 29.2969 18.88 35.5469C18.9817 35.758 19.1409 35.9362 19.3394 36.0608C19.5379 36.1855 19.7675 36.2516 20.0018 36.2516C20.2362 36.2516 20.4658 36.1855 20.6643 36.0608C20.8627 35.9362 21.022 35.758 21.1237 35.5469L32.3776 11.1547C32.6268 10.6156 32.4479 9.95156 31.6221 9.61563Z" stroke="white" stroke-width="2" stroke-miterlimit="10"/>
<path d="M34.0922 6.45938C30.0243 4.85 25.0133 3.75 20 3.75C14.9868 3.75 10.0508 4.74844 5.89691 6.4125C5.5305 6.5625 4.84379 6.9086 5.03207 7.49063L5.78832 9.375C6.10082 10.0156 6.46566 10.0156 6.96488 10.0156C7.10472 10.0156 7.30004 9.9375 7.53363 9.84532C11.5089 8.30124 15.7355 7.50609 20 7.5C24.4344 7.5 28.9774 8.4375 32.4688 9.84375C32.7493 9.95313 32.9055 10.0141 33.0375 10.0141C33.5516 10.0141 33.8485 10.1852 34.2094 9.38125L34.9727 7.5C35.1297 7.03125 34.5828 6.65469 34.0922 6.45938Z" stroke="white" stroke-width="2" stroke-miterlimit="10"/>
<path d="M15 17.5C16.3807 17.5 17.5 16.3807 17.5 15C17.5 13.6193 16.3807 12.5 15 12.5C13.6193 12.5 12.5 13.6193 12.5 15C12.5 16.3807 13.6193 17.5 15 17.5Z" fill="white"/>
<path d="M25 18.75C26.3807 18.75 27.5 17.6307 27.5 16.25C27.5 14.8693 26.3807 13.75 25 13.75C23.6193 13.75 22.5 14.8693 22.5 16.25C22.5 17.6307 23.6193 18.75 25 18.75Z" fill="white"/>
<path d="M20 27.5C21.3807 27.5 22.5 26.3807 22.5 25C22.5 23.6193 21.3807 22.5 20 22.5C18.6193 22.5 17.5 23.6193 17.5 25C17.5 26.3807 18.6193 27.5 20 27.5Z" fill="white"/>
</svg>
